# xmcd
#
# Track frame offsets: 
#        150
#        13927
#        26307
#        36880
#        46927
#        57205
#        68007
#        76627
#        90277
#        105805
#        119082
#        134305
#        145255
#        155752
#
# Disc length: 2554 seconds
#
# Revision: 2
# Processed by: cddbd v1.5.2PL0 Copyright (c) Steve Scherf et al.
# Submitted via: ExactAudioCopy v0.95a5
#
DISCID=a909f80e
DTITLE=The Rolling Stones - Brian's Blues - The Unreleased Tracks Vol.
DTITLE=2
DYEAR=1990
DGENRE=
TTITLE0=Roadrunner
TTITLE1=Meet Me In The Bottom
TTITLE2=Memphis Tennessee
TTITLE3=Beautiful Delilah
TTITLE4=West Coast Idea
TTITLE5=Looking Tired
TTITLE6=Oh Baby
TTITLE7=Anderw's Blues
TTITLE8=The Spider And The Fly
TTITLE9=Country Honk
TTITLE10=Brian's Blues
TTITLE11=Confessin' The Blues
TTITLE12=Parachute Woman
TTITLE13=Goin' Home
EXTD=
EXTT0=(Mc Daniels]\n
EXTT1=(Spann)
EXTT2=(Berry)
EXTT3=(Berry)
EXTT4=(Clapton, Page)
EXTT5=(Jagger/Richard)
EXTT6=(Ozen)
EXTT7=(Nanker/Phelge)
EXTT8=(Nanker/Phelge)
EXTT9=(Jagger/Richard)
EXTT10=(Nanker/Phelge)
EXTT11=(Brown/McShannon)
EXTT12=(Jagger/Richard)
EXTT13=(Jagger/Richard)
PLAYORDER=
